Coordinates
version=1
nRows=21
nColumns=11
inDegrees=yes

Units are S.I. units (second, meters, Newtons, ...)
Angles are in degrees.

endheader
time	pelvis_tilt	pelvis_tx	pelvis_ty	hip_flexion_r	knee_angle_r	ankle_angle_r	hip_flexion_l	knee_angle_l	ankle_angle_l	lumbar_extension
      1.25000000	      2.14779533	      0.58752219	      1.00800290	    -21.30888302	     -3.60528892	     12.62015886	     21.94888827	     -2.84996852	     -1.18160060	    -18.32750994
      1.26666667	      1.96536709	      0.58957266	      1.00662496	    -21.40622319	     -5.57756053	     12.91475294	     22.50475949	     -5.31707444	     -2.02571329	    -17.86867457
      1.28333333	      1.89643566	      0.59073034	      1.00583310	    -21.20222369	     -8.26527257	     13.12483450	     22.80403037	     -7.59165276	     -3.33837978	    -17.80796314
      1.30000000	      1.78242397	      0.59322148	      1.00565083	    -21.03038595	    -10.81755649	     12.69447547	     23.11745375	    -10.07974467	     -4.28181895	    -17.48047892
      1.31666667	      1.84805689	      0.59614635	      1.00637875	    -20.46809757	    -14.45999488	     11.99996789	     23.08327741	    -12.41476872	     -4.84599150	    -17.31892552
      1.33333333	      1.97985417	      0.59922737	      1.00774136	    -19.46449389	    -18.94293102	     10.78120108	     22.79411414	    -14.52930852	     -4.97097828	    -17.17932180
      1.35000000	      2.28619922	      0.60240487	      1.00990829	    -18.10120350	    -24.18352197	      8.69391370	     22.09316010	    -16.34740510	     -4.67459796	    -17.19198113
      1.36666667	      2.43263696	      0.60525178	      1.01209203	    -15.94443350	    -30.17379431	      5.62442521	     21.31804913	    -17.74549902	     -4.06887938	    -17.08666264
      1.38333333	      2.42044910	      0.60739655	      1.01415894	    -13.10137456	    -36.51631139	      1.64646809	     20.51709248	    -18.75379854	     -3.21401851	    -16.91324981
      1.40000000	      2.33506234	      0.60872081	      1.01622350	     -9.89852681	    -42.66199820	     -2.76681721	     19.68216879	    -19.49828692	     -2.16195185	    -16.63896506
      1.41666667	      2.35649132	      0.60966744	      1.01894614	     -6.82081241	    -48.09455063	     -6.71528007	     18.43395556	    -19.63509281	     -1.13245449	    -16.63775700
      1.43333333	      2.28410625	      0.60907545	      1.02135288	     -3.51515894	    -53.19135032	     -8.99917310	     17.29818748	    -19.61081126	     -0.14755735	    -16.59672907
      1.45000000	      2.27923454	      0.60822232	      1.02411829	     -0.41255968	    -57.62023820	     -9.33812874	     16.00103706	    -19.38463279	      0.76332959	    -16.52156012
      1.46666667	      2.16367619	      0.60833328	      1.02737371	      2.50798821	    -61.13958916	     -8.18060792	     14.49413116	    -18.60987071	      1.46324886	    -16.31023241
      1.48333333	      2.23746918	      0.60718034	      1.03065389	      5.24812993	    -64.08339396	     -6.20163661	     12.75206526	    -17.59201529	      1.99501922	    -16.31666095
      1.50000000	      2.07599964	      0.60584569	      1.03314778	      8.12808080	    -66.26758986	     -4.04849979	     11.35553596	    -16.72995960	      2.57035560	    -16.17752497
      1.51666667	      2.00880596	      0.60436495	      1.03553847	     10.74993605	    -67.57873221	     -2.12901636	      9.69958998	    -15.50907382	      2.98180158	    -16.09522602
      1.53333333	      1.95684146	      0.60302822	      1.03759035	     13.16448807	    -68.02359336	     -0.62849296	      7.96541319	    -14.17192318	      3.34425652	    -16.02505524
      1.55000000	      1.72950954	      0.60058289	      1.03854619	     15.73401366	    -67.82247895	      0.49187887	      6.66894347	    -13.20614701	      3.81796276	    -15.92416646
      1.56666667	      1.66166787	      0.59915814	      1.03963990	     17.76786592	    -66.63815472	      1.26348294	      4.98933744	    -11.92314363	      4.19518072	    -15.86228497
      1.58333333	      1.55926390	      0.59711724	      1.04004364	     19.69009918	    -64.75516925	      1.79738213	      3.55297504	    -10.98593342	      4.71927834	    -15.84494139
